<!-- sample rectangle -->
<svg fill="#ffffff" width="624" height="103" xmlns="http://www.w3.org/2000/svg">
          <circle cx="496" cy="52.6" r="3.5"/>
          <path d="M614.4,57.2c-5-3.3-11,0.2-11,0.2L589,65.5c-0.4-4.4-2.4-6.6-4.4-7.8c-5-3.5-11.1-0.4-11.1-0.4l-15.3,8.6
c-3.9-6.2-10.7-10.3-18.5-10.3c-12.2,0-21.8,9.7-21.8,21.8c0,2.7,0.4,5.2,1.3,7.5l-11.7,6.6c0,0-3.3,1.9-5.9,0.8
c-1.7-0.7-2.5-2.2-2.5-6.4v-27h-6v24L477.4,92c0,0-3.3,1.8-5.9,0.7c-1.6-0.7-2.4-2.2-2.4-6.4V54.5h12.2v-5.1h-12.2v-34h-6v68.7
l-13.5,7.8c0,0-3.3,1.9-5.9,0.8c-1.8-0.7-2.7-2.2-2.7-6.4V57.5h-6v4.4c-3.9-3.7-9.3-6-15.2-6c-12.2,0-21.8,9.7-21.8,21.8
c0,2.7,0.4,5.3,1.4,7.8L388,92.1c0,0-3.3,1.7-5.9,0.6c-1.7-0.7-2.5-2.2-2.5-6.4V15.4h-5.9v67.2l-16.5,9.2c0,0-3.3,1.9-5.9,0.8
c-1.7-0.7-2.5-2.2-2.5-6.4V15.4h-6v56.5l-33.2,19.4c-2.8,1.6-5.5,2.5-8.9,2.5c-4.4,0-8.4-1.9-11.1-4.9L314,74.7l2.2-1.1l5.3-3.1
c-3-8.5-11.1-14.4-20.6-14.4c-12.2,0-21.8,9.6-21.8,21.7c0,2.2,0.3,4.1,0.9,6l-14.4,8.3c0,0-3.3,1.8-5.9,0.7
c-1.7-0.8-2.5-2.2-2.5-6.6V54.6h12.2v-5.1h-12.2V15.4h-6v48.7l-20.5,12.2c-0.2-3.3-1.1-6.4-2.8-9.2l-7.5-13.3l7.3-4.4l-2.9-4.8
L178,71.2v-2.7c0-6.6-2.2-9.3-4.8-11.1c-5-3.3-11.1-0.2-11.1-0.2l-14.4,8.2c-0.4-4.4-2.4-6.6-4.4-7.8c-5-3.5-11.1-0.4-11.1-0.4
L117,66.1c-3.9-6.2-10.7-10.3-18.5-10.3c-12.2,0-21.8,9.7-21.8,21.8c0,1.8,0.2,3.5,0.7,5.2c-7.3,6.1-16.8,9.7-27,9.7
C26.8,92.5,7.8,73,7.8,49s19-43.5,42.6-43.5c15.5,0,28.8,8.3,36.5,20.8l5.3-3.1C83.6,9.3,68.1,0,50.5,0C23.2,0,1.3,21.8,1.3,48.9
S23.2,98,50.4,98c10.9,0,21-3.7,29.2-9.7c3.8,6.4,10.9,10.9,18.8,10.9c12.2,0,21.9-9.7,21.9-21.8c0-2.2-0.3-4.2-1.1-6.3l14.4-8.2
c0,0,3.3-1.9,5.9-0.8c1.7,0.7,2.5,2.2,2.5,6.4v30.1h6V72l15.5-8.9c0,0,3.3-1.9,5.9-0.8c1.7,0.7,2.5,2.2,2.5,6.4v29.9h6v-21
l37.2-21.3l7.4,13c0,0,0,0.3,0.2,0.4c1.1,2.4,2,5.1,2,8c0,8.9-7.1,16.1-15.7,16.1c-4.9,0-9.2-2.2-12.2-6l-5.2,3
c4,5.3,10.3,8.9,17.5,8.9c10.3,0,18.8-7.2,21.3-16.6l21-12.2v15.5c0,6.9,2.4,9.4,4.9,11.1c5,3.3,11.1,0.3,11.1,0.3l15.3-8.9
c3.8,6.4,10.7,10.7,18.8,10.7c4.8,0,9.2-1.6,12.8-4.2l29.2-16.8v8.1c0,6.6,2.2,9.3,4.8,11.1c5,3.3,11.1,0.2,11.1,0.2l15-8.6
c0.6,4.9,2.5,6.9,4.7,8.3c5,3.3,11.1,0.3,11.1,0.3l12.7-7.3c3.9,5.5,10.3,9.1,17.7,9.1c6.2,0,12-2.8,15.9-7.1
c0.9,2.4,2.2,3.9,3.9,4.9c4.9,3.3,10.9,0.3,10.9,0.3l12.4-7.2c0.9,3.9,2.7,5.5,4.4,7c5.1,3.3,11.1,0.3,11.1,0.3l14.6-8.3
c0.6,4.8,2.5,6.6,4.4,8.2c5.1,3.3,11.1,0.3,11.1,0.3l13.1-7.5c4,5.5,10.5,9.3,17.7,9.3c12.2,0,21.9-9.7,21.9-21.8
c0-2.2-0.3-4.4-1.1-6.4l14.4-8.3c0,0,3.3-1.8,5.9-0.7c1.8,0.6,2.7,2.2,2.7,6.3V99h6V72.1l15.5-8.9c0,0,3.3-1.7,5.9-0.6
c1.8,0.7,2.7,2.2,2.7,6.4v30h6V68.5c-0.3-6.6-2.8-9.2-5.1-10.9L614.4,57.2z M98.4,93.8c-8.6,0-15.5-7.2-15.5-16.1s7-16.1,15.5-16.1
c8.9,0,15.8,7.2,15.8,16.1s-7.1,16.1-15.7,16.1H98.4z M285.4,77.7c0-8.9,7.1-16.1,15.7-16.1c5.3,0,10,2.7,12.8,6.6l-27.5,15.9
c-0.9-1.9-1.3-4.1-1.3-6.3L285.4,77.7z M420.2,93.8c-8.9,0-15.7-7.2-15.7-16.1s7.1-16.1,15.7-16.1c8.9,0,15.7,7.2,15.7,16.1
S428.9,93.8,420.2,93.8z M539.8,93.8c-8.6,0-15.5-7.2-15.5-16.1s7-16.1,15.5-16.1c8.9,0,15.8,7.2,15.8,16.1S548.6,93.8,539.8,93.8z"/>
</svg>